<svg width="540" height="100" viewBox="0 0 540 100" fill="none" xmlns="http://www.w3.org/2000/svg">
<path d="M119.137 84.1074C118.782 84.1074 118.449 84.0537 118.277 83.9678V82.2275C118.492 82.2812 118.804 82.3135 119.137 82.3135C120.297 82.3135 121.06 81.8301 121.672 80.6914L116.376 68.499H118.438L122.596 78.543H122.768L126.828 68.499H128.837L124.089 79.5635C122.617 83.001 121.414 84.1074 119.137 84.1074ZM131.399 84H129.551V72.8281H131.818L135.793 81.5293H135.879L139.875 72.8281H142.055V84H140.197V76.0723H140.122L136.512 83.6777H135.084L131.474 76.0723H131.399V84ZM151.815 84V78.9727H146.304V84H144.456V72.8281H146.304V77.4365H151.815V72.8281H153.663V84H151.815ZM159.77 82.6035C161.531 82.6035 162.885 81.3682 162.885 79.7568V78.8438L159.899 79.0264C158.395 79.123 157.535 79.7891 157.535 80.8418C157.535 81.9053 158.427 82.6035 159.77 82.6035ZM159.351 84.1934C157.127 84.1934 155.634 82.8506 155.634 80.8418C155.634 78.9297 157.106 77.7266 159.684 77.5762L162.885 77.3936V76.459C162.885 75.0947 161.983 74.2783 160.436 74.2783C158.996 74.2783 158.094 74.9551 157.858 76.0508H156.053C156.182 74.1172 157.836 72.6348 160.479 72.6348C163.1 72.6348 164.754 74.0527 164.754 76.2764V84H162.982V82.0771H162.939C162.273 83.3555 160.855 84.1934 159.351 84.1934ZM171.13 78.4893H173.267V74.3643H171.13C169.68 74.3643 168.756 75.1592 168.756 76.502C168.756 77.6621 169.69 78.4893 171.13 78.4893ZM173.267 84V80.0254H171.291L168.455 84H166.317L169.432 79.6816C167.853 79.2305 166.897 78.0703 166.897 76.5342C166.897 74.2354 168.552 72.8281 171.119 72.8281H175.115V84H173.267ZM185.514 82.6035C187.276 82.6035 188.629 81.3682 188.629 79.7568V78.8438L185.643 79.0264C184.139 79.123 183.28 79.7891 183.28 80.8418C183.28 81.9053 184.171 82.6035 185.514 82.6035ZM185.095 84.1934C182.871 84.1934 181.378 82.8506 181.378 80.8418C181.378 78.9297 182.85 77.7266 185.428 77.5762L188.629 77.3936V76.459C188.629 75.0947 187.727 74.2783 186.18 74.2783C184.741 74.2783 183.838 74.9551 183.602 76.0508H181.797C181.926 74.1172 183.58 72.6348 186.223 72.6348C188.844 72.6348 190.498 74.0527 190.498 76.2764V84H188.726V82.0771H188.683C188.017 83.3555 186.599 84.1934 185.095 84.1934ZM200.215 84V78.9727H194.704V84H192.856V72.8281H194.704V77.4365H200.215V72.8281H202.063V84H200.215ZM208.17 82.6035C209.931 82.6035 211.285 81.3682 211.285 79.7568V78.8438L208.299 79.0264C206.795 79.123 205.935 79.7891 205.935 80.8418C205.935 81.9053 206.827 82.6035 208.17 82.6035ZM207.751 84.1934C205.527 84.1934 204.034 82.8506 204.034 80.8418C204.034 78.9297 205.506 77.7266 208.084 77.5762L211.285 77.3936V76.459C211.285 75.0947 210.383 74.2783 208.836 74.2783C207.396 74.2783 206.494 74.9551 206.258 76.0508H204.453C204.582 74.1172 206.236 72.6348 208.879 72.6348C211.5 72.6348 213.154 74.0527 213.154 76.2764V84H211.382V82.0771H211.339C210.673 83.3555 209.255 84.1934 207.751 84.1934ZM218.499 79.0693C218.273 82.1523 217.532 84.0967 215.179 84.0967C214.857 84.0967 214.642 84.0322 214.513 83.9785V82.292C214.61 82.3242 214.814 82.3779 215.082 82.3779C216.189 82.3779 216.608 81.0781 216.748 79.0264L217.177 72.8281H224.493V84H222.645V74.3643H218.842L218.499 79.0693ZM228.763 84H226.915V72.8281H228.763V81.1426H228.849L234.435 72.8281H236.282V84H234.435V75.6855H234.349L228.763 84ZM246.858 72.8281V74.3643H243.249V84H241.401V74.3643H237.792V72.8281H246.858ZM250.215 84H248.368V72.8281H250.215V81.1426H250.301L255.887 72.8281H257.735V84H255.887V75.6855H255.801L250.215 84ZM263.928 78.1133L269.299 84H266.893L262.07 78.6289H261.984V84H260.136V72.8281H261.984V77.7695H262.07L266.839 72.8281H269.149L263.928 78.1133ZM274.01 82.6035C275.772 82.6035 277.125 81.3682 277.125 79.7568V78.8438L274.139 79.0264C272.635 79.123 271.775 79.7891 271.775 80.8418C271.775 81.9053 272.667 82.6035 274.01 82.6035ZM273.591 84.1934C271.367 84.1934 269.874 82.8506 269.874 80.8418C269.874 78.9297 271.346 77.7266 273.924 77.5762L277.125 77.3936V76.459C277.125 75.0947 276.223 74.2783 274.676 74.2783C273.236 74.2783 272.334 74.9551 272.098 76.0508H270.293C270.422 74.1172 272.076 72.6348 274.719 72.6348C277.34 72.6348 278.994 74.0527 278.994 76.2764V84H277.222V82.0771H277.179C276.513 83.3555 275.095 84.1934 273.591 84.1934ZM293.056 82.4639V74.3643H288.867L288.523 79.0693C288.426 80.4551 288.136 81.6689 287.61 82.3779V82.4639H293.056ZM286.278 86.9541H284.538V82.4639H285.472C286.289 81.9268 286.686 80.5303 286.793 79.0264L287.223 72.8281H294.915V82.4639H296.687V86.9541H294.947V84H286.278V86.9541ZM301.129 79.0693C300.904 82.1523 300.162 84.0967 297.81 84.0967C297.488 84.0967 297.273 84.0322 297.144 83.9785V82.292C297.24 82.3242 297.445 82.3779 297.713 82.3779C298.82 82.3779 299.239 81.0781 299.378 79.0264L299.808 72.8281H307.123V84H305.276V74.3643H301.473L301.129 79.0693ZM313.563 78.4893H315.701V74.3643H313.563C312.113 74.3643 311.189 75.1592 311.189 76.502C311.189 77.6621 312.124 78.4893 313.563 78.4893ZM315.701 84V80.0254H313.725L310.889 84H308.751L311.866 79.6816C310.287 79.2305 309.331 78.0703 309.331 76.5342C309.331 74.2354 310.985 72.8281 313.553 72.8281H317.549V84H315.701ZM333.501 76.2656H331.654C331.331 75.1914 330.418 74.2783 328.839 74.2783C326.895 74.2783 325.617 75.9219 325.617 78.4141C325.617 80.9707 326.916 82.5498 328.861 82.5498C330.343 82.5498 331.321 81.8193 331.675 80.584H333.523C333.158 82.7002 331.364 84.1934 328.85 84.1934C325.746 84.1934 323.715 81.9697 323.715 78.4141C323.715 74.9336 325.735 72.6348 328.829 72.6348C331.525 72.6348 333.168 74.3643 333.501 76.2656ZM343.207 72.8281V74.3643H339.598V84H337.75V74.3643H334.141V72.8281H343.207ZM347.982 82.6035C349.744 82.6035 351.098 81.3682 351.098 79.7568V78.8438L348.111 79.0264C346.607 79.123 345.748 79.7891 345.748 80.8418C345.748 81.9053 346.639 82.6035 347.982 82.6035ZM347.563 84.1934C345.34 84.1934 343.847 82.8506 343.847 80.8418C343.847 78.9297 345.318 77.7266 347.896 77.5762L351.098 77.3936V76.459C351.098 75.0947 350.195 74.2783 348.648 74.2783C347.209 74.2783 346.306 74.9551 346.07 76.0508H344.265C344.394 74.1172 346.049 72.6348 348.691 72.6348C351.312 72.6348 352.967 74.0527 352.967 76.2764V84H351.194V82.0771H351.151C350.485 83.3555 349.067 84.1934 347.563 84.1934ZM360.116 84.1934C356.689 84.1934 354.884 81.8945 354.884 77.458C354.884 71.292 356.517 68.7246 360.857 68.5635L361.684 68.5312C362.758 68.4775 363.961 68.2627 364.595 67.9297V69.5625C364.241 69.8848 363.059 70.1641 361.77 70.2178L360.943 70.25C357.838 70.3682 356.915 71.7324 356.463 75.0732H356.549C357.28 73.752 358.676 73.0645 360.395 73.0645C363.414 73.0645 365.336 75.1914 365.336 78.5215C365.336 82.0342 363.349 84.1934 360.116 84.1934ZM360.116 82.5391C362.211 82.5391 363.424 81.0889 363.424 78.5215C363.424 76.083 362.211 74.6973 360.116 74.6973C358.01 74.6973 356.796 76.083 356.796 78.5215C356.796 81.0889 358.01 82.5391 360.116 82.5391ZM369.048 84H367.2V72.8281H369.048V81.1426H369.134L374.72 72.8281H376.568V84H374.72V75.6855H374.634L369.048 84ZM381.955 79.0693C381.729 82.1523 380.988 84.0967 378.636 84.0967C378.313 84.0967 378.099 84.0322 377.97 83.9785V82.292C378.066 82.3242 378.271 82.3779 378.539 82.3779C379.646 82.3779 380.064 81.0781 380.204 79.0264L380.634 72.8281H387.949V84H386.102V74.3643H382.299L381.955 79.0693ZM394.303 77.9307H392.219V82.4639H394.303C395.754 82.4639 396.688 81.5615 396.688 80.1973C396.688 78.8223 395.743 77.9307 394.303 77.9307ZM390.372 84V72.8281H392.219V76.3945H394.336C396.892 76.3945 398.536 77.8662 398.536 80.1973C398.536 82.5283 396.892 84 394.336 84H390.372ZM407.715 84V78.9727H402.205V84H400.357V72.8281H402.205V77.4365H407.715V72.8281H409.563V84H407.715ZM416.615 84.1934C413.522 84.1934 411.438 81.9697 411.438 78.4141C411.438 74.8477 413.522 72.6348 416.615 72.6348C419.698 72.6348 421.782 74.8477 421.782 78.4141C421.782 81.9697 419.698 84.1934 416.615 84.1934ZM416.615 82.5498C418.592 82.5498 419.881 81.0459 419.881 78.4141C419.881 75.7822 418.592 74.2783 416.615 74.2783C414.639 74.2783 413.339 75.7822 413.339 78.4141C413.339 81.0459 414.639 82.5498 416.615 82.5498ZM425.483 84H423.636V72.8281H425.483V81.1426H425.569L431.155 72.8281H433.003V84H431.155V75.6855H431.069L425.483 84ZM425.064 67.9941H426.439C426.439 69.2402 427.245 70.2178 428.523 70.2178C429.802 70.2178 430.607 69.2402 430.607 67.9941H431.982C431.982 69.9707 430.575 71.3242 428.523 71.3242C426.472 71.3242 425.064 69.9707 425.064 67.9941ZM446.947 84V74.3643H441.543V84H439.696V72.8281H448.805V84H446.947ZM456.642 72.6348C459.488 72.6348 461.422 74.9121 461.422 78.4141C461.422 81.916 459.499 84.1934 456.685 84.1934C455.084 84.1934 453.795 83.4092 453.129 82.1846H453.086V87.7275H451.217V72.8281H452.989V74.7188H453.032C453.72 73.4619 455.02 72.6348 456.642 72.6348ZM456.276 82.5498C458.264 82.5498 459.51 80.9492 459.51 78.4141C459.51 75.8896 458.264 74.2783 456.276 74.2783C454.364 74.2783 453.075 75.9326 453.075 78.4141C453.075 80.9062 454.364 82.5498 456.276 82.5498ZM465.123 84H463.275V72.8281H465.123V81.1426H465.209L470.795 72.8281H472.642V84H470.795V75.6855H470.709L465.123 84ZM479.834 84.1934C476.408 84.1934 474.603 81.8945 474.603 77.458C474.603 71.292 476.236 68.7246 480.576 68.5635L481.403 68.5312C482.477 68.4775 483.68 68.2627 484.314 67.9297V69.5625C483.959 69.8848 482.778 70.1641 481.489 70.2178L480.662 70.25C477.557 70.3682 476.633 71.7324 476.182 75.0732H476.268C476.999 73.752 478.395 73.0645 480.114 73.0645C483.132 73.0645 485.055 75.1914 485.055 78.5215C485.055 82.0342 483.068 84.1934 479.834 84.1934ZM479.834 82.5391C481.929 82.5391 483.143 81.0889 483.143 78.5215C483.143 76.083 481.929 74.6973 479.834 74.6973C477.729 74.6973 476.515 76.083 476.515 78.5215C476.515 81.0889 477.729 82.5391 479.834 82.5391ZM496.48 84V72.8281H498.327V84H496.48ZM490.851 77.9307H488.767V82.4639H490.851C492.301 82.4639 493.236 81.5615 493.236 80.1973C493.236 78.8223 492.29 77.9307 490.851 77.9307ZM486.919 84V72.8281H488.767V76.3945H490.883C493.44 76.3945 495.083 77.8662 495.083 80.1973C495.083 82.5283 493.44 84 490.883 84H486.919ZM503.715 79.0693C503.489 82.1523 502.748 84.0967 500.395 84.0967C500.073 84.0967 499.858 84.0322 499.729 83.9785V82.292C499.826 82.3242 500.03 82.3779 500.299 82.3779C501.405 82.3779 501.824 81.0781 501.964 79.0264L502.393 72.8281H509.709V84H507.861V74.3643H504.059L503.715 79.0693ZM513.979 84H512.131V72.8281H513.979V81.1426H514.065L519.651 72.8281H521.499V84H519.651V75.6855H519.565L513.979 84Z" fill="white"/>
<path d="M135.632 54.576C129.712 54.576 125.232 52.976 122.192 49.776C119.216 46.768 117.728 42.528 117.728 37.056V36.672C117.728 31.456 119.392 27.216 122.72 23.952C125.984 20.752 130.16 19.152 135.248 19.152C139.76 19.152 143.44 20.208 146.288 22.32C149.168 24.592 150.8 27.936 151.184 32.352H141.056C140.672 28.736 138.752 26.928 135.296 26.928C133.056 26.928 131.296 27.776 130.016 29.472C128.736 31.136 128.096 33.52 128.096 36.624V37.008C128.096 40.112 128.72 42.512 129.968 44.208C131.248 45.872 133.072 46.704 135.44 46.704C139.184 46.704 141.312 44.832 141.824 41.088H151.616C151.296 45.376 149.664 48.736 146.72 51.168C143.872 53.44 140.176 54.576 135.632 54.576ZM162.829 54.576C160.301 54.576 158.301 53.824 156.829 52.32C155.197 50.688 154.381 48.336 154.381 45.264V28.896H162.973V43.872C162.973 46.688 164.157 48.096 166.525 48.096C169.373 48.096 170.797 46.512 170.797 43.344V28.896H179.389V54H170.797V50.112C169.293 53.088 166.637 54.576 162.829 54.576ZM183.894 28.896H192.486V32.64C194.278 29.696 196.886 28.224 200.31 28.224C203.382 28.224 205.878 29.312 207.798 31.488C209.878 33.824 210.918 37.072 210.918 41.232V41.616C210.918 45.776 209.878 49.008 207.798 51.312C205.878 53.488 203.366 54.576 200.262 54.576C196.55 54.576 193.958 53.152 192.486 50.304V62.4H183.894V28.896ZM197.238 48C200.534 48 202.182 45.872 202.182 41.616V41.232C202.182 39.056 201.75 37.424 200.886 36.336C200.022 35.248 198.806 34.704 197.238 34.704C195.67 34.704 194.438 35.264 193.542 36.384C192.678 37.504 192.246 39.104 192.246 41.184V41.568C192.246 43.68 192.678 45.28 193.542 46.368C194.406 47.456 195.638 48 197.238 48ZM226.056 54.576C222.152 54.576 219.016 53.488 216.648 51.312C214.12 49.04 212.856 45.856 212.856 41.76V41.376C212.856 37.344 214.168 34.112 216.792 31.68C219.288 29.376 222.44 28.224 226.248 28.224C229.608 28.224 232.36 28.976 234.504 30.48C236.968 32.304 238.312 34.992 238.536 38.544H230.472C230.088 36.112 228.744 34.896 226.44 34.896C223.24 34.896 221.64 37.024 221.64 41.28V41.664C221.64 46.08 223.288 48.288 226.584 48.288C229.144 48.288 230.6 46.896 230.952 44.112H238.68C238.552 47.344 237.4 49.904 235.224 51.792C233.08 53.648 230.024 54.576 226.056 54.576ZM248.89 54.576C246.458 54.576 244.49 53.984 242.986 52.8C241.258 51.488 240.394 49.568 240.394 47.04C240.394 41.568 244.842 38.832 253.738 38.832H256.138V38.256C256.138 36.912 255.898 35.92 255.418 35.28C254.97 34.608 254.106 34.272 252.826 34.272C250.81 34.272 249.674 35.264 249.418 37.248H241.354C241.546 34.304 242.746 32.032 244.954 30.432C247.002 28.96 249.802 28.224 253.354 28.224C256.938 28.224 259.69 28.976 261.61 30.48C263.658 32.08 264.682 34.496 264.682 37.728V54H256.33V51.072C254.826 53.408 252.346 54.576 248.89 54.576ZM251.866 48.768C253.114 48.768 254.138 48.448 254.938 47.808C255.738 47.136 256.138 46.272 256.138 45.216V43.68H253.882C252.122 43.68 250.842 43.888 250.042 44.304C249.274 44.688 248.89 45.392 248.89 46.416C248.89 47.984 249.882 48.768 251.866 48.768ZM278.838 54.576C275.222 54.576 272.422 53.856 270.438 52.416C268.454 50.944 267.414 48.816 267.318 46.032H275.238C275.43 47.024 275.766 47.744 276.246 48.192C276.758 48.64 277.606 48.864 278.79 48.864C280.838 48.864 281.862 48.176 281.862 46.8C281.862 46.192 281.526 45.728 280.854 45.408C280.182 45.088 278.966 44.8 277.206 44.544C273.718 44.096 271.286 43.296 269.91 42.144C268.406 40.96 267.654 39.072 267.654 36.48C267.654 33.824 268.726 31.744 270.87 30.24C272.79 28.896 275.302 28.224 278.406 28.224C281.702 28.224 284.246 28.832 286.038 30.048C288.022 31.392 289.174 33.488 289.494 36.336H281.718C281.398 34.672 280.326 33.84 278.502 33.84C277.606 33.84 276.902 34.016 276.39 34.368C275.91 34.72 275.67 35.2 275.67 35.808C275.67 36.384 275.974 36.832 276.582 37.152C277.222 37.44 278.326 37.68 279.894 37.872C283.51 38.32 286.102 39.088 287.67 40.176C289.366 41.456 290.214 43.376 290.214 45.936C290.214 48.848 289.206 51.024 287.19 52.464C285.206 53.872 282.422 54.576 278.838 54.576ZM303.148 54.576C297.26 54.576 294.316 51.696 294.316 45.936V34.752H291.292V28.896H294.316V23.664H302.908V28.896H307.852V34.752H302.908V45.12C302.908 46.88 303.756 47.76 305.452 47.76C306.412 47.76 307.228 47.616 307.9 47.328V53.856C306.332 54.336 304.748 54.576 303.148 54.576Z" fill="#F2E2C9"/>
<path d="M18.5556 87.5799C18.2012 88.0035 17.5697 88.0602 17.1533 87.6974C7.99077 79.7142 2.04004 68.6569 0.435883 56.5877C-1.21224 44.1878 1.84747 31.6204 9.0112 21.3658C16.1749 11.1112 26.9222 3.91428 39.1322 1.19538C51.0165 -1.451 63.446 0.332 74.0944 6.18833C74.5783 6.45448 74.7423 7.06696 74.4666 7.54547L71.221 13.1772C70.9452 13.6557 70.3343 13.8189 69.8493 13.5547C61.0444 8.75905 50.7883 7.30801 40.9797 9.49216C30.8455 11.7489 21.9252 17.7223 15.9793 26.2336C10.0334 34.7449 7.49384 45.1758 8.86178 55.4678C10.1858 65.429 15.077 74.5596 22.6093 81.177C23.0243 81.5415 23.0812 82.1713 22.7268 82.5948L18.5556 87.5799Z" fill="#E19009"/>
<path d="M78.3744 10.0513C78.6942 9.60107 79.3193 9.49464 79.7631 9.82338C90.1298 17.5028 97.1385 28.9032 99.2976 41.6487C101.513 54.7232 98.4429 68.1421 90.764 78.9534C83.085 89.7647 71.4259 97.0827 58.3513 99.2976C45.6059 101.457 32.5331 98.5941 21.8678 91.335C21.4113 91.0243 21.3059 90.399 21.6257 89.9487L25.3896 84.6494C25.7094 84.1991 26.3331 84.0945 26.7909 84.4033C35.6173 90.3581 46.4088 92.6997 56.9316 90.917C67.7835 89.0786 77.4606 83.0047 83.8341 74.0313C90.2076 65.058 92.7554 53.9203 90.917 43.0684C89.1344 32.5456 83.3692 23.1274 74.8396 16.7548C74.3972 16.4242 74.2906 15.8009 74.6104 15.3506L78.3744 10.0513Z" fill="#E19009"/>
<path d="M35.7903 31.1156H31.75C31.4739 31.1156 31.25 31.3395 31.25 31.6156V44.7285C31.25 45.0046 31.4739 45.2285 31.75 45.2285H35.7903C36.0665 45.2285 36.2903 45.0046 36.2903 44.7285V31.6156C36.2903 31.3395 36.0665 31.1156 35.7903 31.1156Z" fill="#E19009"/>
<path d="M42.847 27.0833H38.8066C38.5305 27.0833 38.3066 27.3072 38.3066 27.5833V44.7285C38.3066 45.0046 38.5305 45.2285 38.8066 45.2285H42.847C43.1231 45.2285 43.347 45.0046 43.347 44.7285V27.5833C43.347 27.3072 43.1231 27.0833 42.847 27.0833Z" fill="#E19009"/>
<path d="M49.9026 37.164H45.8623C45.5862 37.164 45.3623 37.3879 45.3623 37.664V44.7285C45.3623 45.0047 45.5862 45.2285 45.8623 45.2285H49.9026C50.1788 45.2285 50.4026 45.0047 50.4026 44.7285V37.664C50.4026 37.3879 50.1788 37.164 49.9026 37.164Z" fill="#E19009"/>
<path d="M56.9593 33.1317H52.9189C52.6428 33.1317 52.4189 33.3555 52.4189 33.6317V44.7284C52.4189 45.0046 52.6428 45.2284 52.9189 45.2284H56.9593C57.2354 45.2284 57.4593 45.0046 57.4593 44.7284V33.6317C57.4593 33.3555 57.2354 33.1317 56.9593 33.1317Z" fill="#E19009"/>
<path d="M64.0159 29.0995H59.9756C59.6994 29.0995 59.4756 29.3233 59.4756 29.5995V44.7285C59.4756 45.0047 59.6994 45.2285 59.9756 45.2285H64.0159C64.292 45.2285 64.5159 45.0047 64.5159 44.7285V29.5995C64.5159 29.3233 64.2921 29.0995 64.0159 29.0995Z" fill="#E19009"/>
<path d="M32.2916 53.6458C32.2916 55.6977 32.6957 57.7295 33.481 59.6252C34.2662 61.5209 35.4171 63.2435 36.868 64.6944C38.3189 66.1453 40.0415 67.2962 41.9372 68.0815C43.8329 68.8666 45.8646 69.2708 47.9166 69.2708C49.9685 69.2708 52.0003 68.8666 53.896 68.0815C55.7917 67.2962 57.5142 66.1453 58.9652 64.6944C60.4161 63.2435 61.567 61.5209 62.3523 59.6252C63.1374 57.7295 63.5416 55.6977 63.5416 53.6458V48.4375H32.2916V53.6458ZM68.7499 43.2291H71.3541C73.4261 43.2291 75.4132 44.0522 76.8783 45.5174C78.3435 46.9825 79.1666 48.9696 79.1666 51.0416C79.1666 53.1136 78.3435 55.1007 76.8783 56.5658C75.4132 58.0311 73.4261 58.8541 71.3541 58.8541H68.0937C66.8301 63.7686 63.8163 68.053 59.6181 70.9031C55.4198 73.7531 50.3257 74.973 45.2918 74.3337C40.258 73.6944 35.6305 71.2399 32.2779 67.4308C28.9254 63.6218 27.0782 58.7201 27.0833 53.6458V43.2291H68.7499ZM68.7499 53.6458H71.3541C72.0447 53.6458 72.7071 53.3714 73.1955 52.883C73.6839 52.3946 73.9582 51.7323 73.9582 51.0416C73.9582 50.351 73.6839 49.6886 73.1955 49.2002C72.7071 48.7118 72.0447 48.4375 71.3541 48.4375H68.7499V53.6458Z" fill="#EBD3BA"/>
</svg>
