<svg width="48" height="48" viewBox="0 0 48 48" fill="none" xmlns="http://www.w3.org/2000/svg">
<path d="M9.24039 41.6395C8.88597 42.0631 8.25366 42.1206 7.84522 41.7489C3.66749 37.9466 0.956315 32.783 0.209224 27.1621C-0.581876 21.2101 0.886786 15.1778 4.32537 10.2556C7.76396 5.33337 12.9227 1.87886 18.7835 0.57378C24.3182 -0.658695 30.0994 0.110327 35.107 2.72475C35.5965 2.98035 35.7601 3.59385 35.4843 4.07236L34.4457 5.87451C34.17 6.35302 33.5595 6.51494 33.0678 6.26352C28.9465 4.15638 24.2086 3.54565 19.6703 4.55624C14.8058 5.63945 10.5241 8.50669 7.67006 12.5921C4.81603 16.6776 3.59704 21.6844 4.25366 26.6246C4.86625 31.2335 7.06985 35.472 10.4663 38.6166C10.8716 38.9919 10.9296 39.6208 10.5752 40.0443L9.24039 41.6395Z" fill="#E19009"/>
<path d="M37.3186 5.24858C37.6384 4.79832 38.2642 4.691 38.7008 5.02928C43.449 8.70852 46.6555 14.045 47.6629 19.9914C48.726 26.2671 47.2526 32.7082 43.5667 37.8976C39.8808 43.087 34.2844 46.5997 28.0086 47.6629C22.0622 48.6702 15.9674 47.4003 10.9296 44.1287C10.4664 43.8279 10.3616 43.2017 10.6814 42.7514L11.8859 41.0556C12.2057 40.6054 12.8287 40.5019 13.2945 40.7988C17.4479 43.4459 22.4477 44.4668 27.3272 43.6402C32.5361 42.7578 37.1811 39.8422 40.2404 35.535C43.2996 31.2278 44.5226 25.8817 43.6402 20.6728C42.8136 15.7934 40.2029 11.4088 36.3355 8.35893C35.9018 8.01694 35.7943 7.39463 36.1141 6.94436L37.3186 5.24858Z" fill="#E19009"/>
<path d="M16.9194 14.9355H15.5C15.2239 14.9355 15 15.1593 15 15.4355V21.2097C15 21.4858 15.2239 21.7097 15.5 21.7097H16.9194C17.1955 21.7097 17.4194 21.4858 17.4194 21.2097V15.4355C17.4194 15.1593 17.1955 14.9355 16.9194 14.9355Z" fill="#E19009"/>
<path d="M20.3066 13H18.8872C18.6111 13 18.3872 13.2239 18.3872 13.5V21.2097C18.3872 21.4858 18.6111 21.7097 18.8872 21.7097H20.3066C20.5827 21.7097 20.8066 21.4858 20.8066 21.2097V13.5C20.8066 13.2239 20.5827 13 20.3066 13Z" fill="#E19009"/>
<path d="M23.6933 17.8387H22.2739C21.9978 17.8387 21.7739 18.0626 21.7739 18.3387V21.2097C21.7739 21.4859 21.9978 21.7097 22.2739 21.7097H23.6933C23.9694 21.7097 24.1933 21.4859 24.1933 21.2097V18.3387C24.1933 18.0626 23.9694 17.8387 23.6933 17.8387Z" fill="#E19009"/>
<path d="M27.0805 15.9032H25.6611C25.385 15.9032 25.1611 16.1271 25.1611 16.4032V21.2096C25.1611 21.4858 25.385 21.7096 25.6611 21.7096H27.0805C27.3566 21.7096 27.5805 21.4858 27.5805 21.2096V16.4032C27.5805 16.1271 27.3566 15.9032 27.0805 15.9032Z" fill="#E19009"/>
<path d="M30.4677 13.9678H29.0483C28.7722 13.9678 28.5483 14.1916 28.5483 14.4678V21.2097C28.5483 21.4859 28.7722 21.7097 29.0483 21.7097H30.4677C30.7438 21.7097 30.9677 21.4859 30.9677 21.2097V14.4678C30.9677 14.1916 30.7438 13.9678 30.4677 13.9678Z" fill="#E19009"/>
<path d="M15.5 25.75C15.5 26.7349 15.694 27.7102 16.0709 28.6201C16.4478 29.5301 17.0002 30.3569 17.6967 31.0533C18.3931 31.7498 19.2199 32.3022 20.1299 32.6791C21.0398 33.056 22.0151 33.25 23 33.25C23.9849 33.25 24.9602 33.056 25.8701 32.6791C26.7801 32.3022 27.6069 31.7498 28.3033 31.0533C28.9998 30.3569 29.5522 29.5301 29.9291 28.6201C30.306 27.7102 30.5 26.7349 30.5 25.75V23.25H15.5V25.75ZM33 20.75H34.25C35.2446 20.75 36.1984 21.1451 36.9016 21.8484C37.6049 22.5516 38 23.5054 38 24.5C38 25.4946 37.6049 26.4484 36.9016 27.1516C36.1984 27.8549 35.2446 28.25 34.25 28.25H32.685C32.0785 30.6089 30.6319 32.6654 28.6167 34.0335C26.6016 35.4015 24.1564 35.9871 21.7401 35.6802C19.3239 35.3733 17.1027 34.1952 15.4934 32.3668C13.8842 30.5385 12.9976 28.1857 13 25.75V20.75H33ZM33 25.75H34.25C34.5815 25.75 34.8994 25.6183 35.1339 25.3839C35.3683 25.1494 35.5 24.8315 35.5 24.5C35.5 24.1685 35.3683 23.8506 35.1339 23.6161C34.8994 23.3817 34.5815 23.25 34.25 23.25H33V25.75Z" fill="#EBD3BA"/>
</svg>
